<?xml version="1.0" standalone="no"?>
<!DOCTYPE svg PUBLIC "-//W3C//DTD SVG 20010904//EN"
 "http://www.w3.org/TR/2001/REC-SVG-20010904/DTD/svg10.dtd">
<svg version="1.0" xmlns="http://www.w3.org/2000/svg"
 width="267.000000pt" height="267.000000pt" viewBox="0 0 267.000000 267.000000"
 preserveAspectRatio="xMidYMid meet">
<metadata>
Created by potrace 1.14, written by Peter Selinger 2001-2017
</metadata>
<g transform="translate(0.000000,267.000000) scale(0.100000,-0.100000)"
fill="#000000" stroke="none">
<path d="M1040 2369 c-62 -17 -82 -18 -114 -9 -72 21 -194 14 -287 -16 -68
-23 -96 -39 -153 -88 -144 -124 -182 -178 -250 -361 -49 -129 -62 -265 -46
-467 7 -84 9 -193 5 -243 -4 -68 -2 -102 9 -140 9 -27 16 -78 16 -112 0 -40 9
-90 25 -137 14 -41 25 -89 25 -107 0 -17 15 -64 34 -103 45 -93 137 -174 245
-216 41 -16 86 -40 100 -53 14 -13 59 -38 99 -56 l73 -33 317 1 c482 1 589 8
696 43 81 26 96 35 162 97 44 42 97 81 135 99 77 37 117 77 157 157 40 83 41
85 43 305 2 157 -1 208 -15 260 -17 65 -17 66 5 120 20 49 23 76 27 240 3 133
-1 214 -12 288 -16 109 -32 146 -93 215 -18 20 -33 44 -33 52 0 8 -13 29 -28
47 -15 18 -35 45 -45 60 -9 14 -33 32 -54 38 -21 7 -63 25 -94 41 -31 15 -83
35 -115 43 -33 8 -84 24 -114 35 -51 19 -78 20 -350 20 -263 0 -303 -2 -370
-20z m529 -489 c54 -43 60 -61 40 -119 -20 -56 -105 -79 -169 -46 -34 18 -59
82 -44 114 11 24 92 91 109 91 7 0 36 -18 64 -40z m-243 -139 c16 -5 41 -12
57 -15 17 -4 27 -13 27 -25 0 -10 11 -33 25 -52 14 -19 33 -52 44 -75 17 -38
23 -42 66 -48 26 -3 61 -6 76 -6 38 0 72 -34 64 -63 -12 -40 -41 -55 -123 -62
-96 -8 -139 6 -171 59 -19 30 -28 36 -56 36 -57 0 -89 -52 -61 -95 9 -14 21
-25 26 -25 6 0 19 -9 30 -20 17 -17 20 -34 21 -122 0 -57 4 -112 8 -122 6 -17
10 -15 29 15 72 113 136 170 216 190 57 14 151 7 194 -15 32 -16 124 -104 149
-143 19 -29 29 -189 14 -235 -13 -38 -134 -162 -174 -177 -52 -20 -154 -24
-204 -7 -59 20 -175 121 -193 168 -31 84 -26 79 -58 61 -36 -21 -79 -11 -94
22 -6 14 -14 25 -18 25 -7 0 -80 -141 -80 -155 0 -5 -23 -32 -51 -59 -66 -63
-127 -80 -242 -66 -90 11 -97 14 -159 72 -111 105 -120 278 -19 393 19 22 60
57 90 77 53 36 60 38 134 38 77 0 80 -1 152 -47 65 -42 77 -55 98 -103 24 -53
61 -99 72 -88 3 3 8 28 12 57 5 45 3 56 -23 92 -16 23 -47 50 -74 64 -25 13
-67 43 -93 68 -39 38 -47 52 -47 82 0 32 11 49 72 119 82 93 150 156 193 179
36 19 35 19 71 8z"/>
<path d="M864 1197 c-12 -6 -44 -24 -72 -39 -43 -23 -53 -34 -62 -68 -6 -22
-8 -67 -4 -103 6 -61 9 -66 55 -106 45 -38 52 -41 109 -41 58 0 63 2 106 43
39 37 46 49 53 98 4 33 3 74 -3 100 -9 37 -19 49 -66 80 -69 45 -90 52 -116
36z"/>
<path d="M1602 1171 c-45 -30 -112 -122 -112 -155 0 -33 47 -101 97 -140 44
-34 52 -37 96 -33 52 5 85 29 138 101 37 50 37 88 -1 148 -33 53 -110 108
-150 108 -14 0 -44 -13 -68 -29z"/>
</g>
</svg>
